<svg id="LogoWL" xmlns="http://www.w3.org/2000/svg" viewBox="0 0 1012.42 421.04"><defs><style>.cls-1{font-size:137.43px;font-family:Montserrat-Light, Montserrat;font-weight:300;}.cls-1,.cls-4{fill:#517ca4;}.cls-2{letter-spacing:-0.02em;}.cls-3{letter-spacing:-0.01em;}</style></defs><text class="cls-1" transform="translate(0 385.18)"><tspan class="cls-2">W</tspan><tspan x="148.01" y="0">ORSHIP LI</tspan><tspan class="cls-3" x="852.73" y="0">S</tspan><tspan x="935.05" y="0">T</tspan></text><path class="cls-4" d="M668.34,62.81a3.65,3.65,0,0,0,.22-1.12,9.61,9.61,0,0,1,.23-1.57c-.3.15-.38,0-.23-.34s.08-.48-.22-.34c-.45.16-.67.27-.67.34s-.3.27-.9.56h.45a20.62,20.62,0,0,0-2.92,2.59c-.75.82-1.57,1.76-2.47,2.8a18.88,18.88,0,0,1,.45-1.91,1.19,1.19,0,0,0-.23-1.23,4.23,4.23,0,0,0,1-1.91,9,9,0,0,1,.56-1.91c-.3.15-.33,0-.11-.56s.19-.64-.11-.34c-.75.15-1.16.34-1.24.56s-.41.49-1,.79a50.8,50.8,0,0,0-4.37,4.94q-1.92,2.48-3.93,5.17a28.53,28.53,0,0,1-2.47,4Q649,75.17,647.9,77a22.82,22.82,0,0,0-2.8,4.38c-.68,1.43-1.31,2.81-1.91,4.15a.54.54,0,0,1-.45.57,4.67,4.67,0,0,0-.9.33,10.27,10.27,0,0,1-2,4,14.82,14.82,0,0,0-2.25,3.81H638a14.74,14.74,0,0,1-1.34,1.57,5.15,5.15,0,0,0-1.13,2l-.22.22c-.15,0-.23,0-.23.11s-.07.12-.22.12-.38.37-.67,1.12-.64,1.65-1,2.69-.75,2-1.13,2.81-.64,1.23-.78,1.23v.45a23.54,23.54,0,0,1-3,4.05,23.7,23.7,0,0,0-2.8,3.59,5.87,5.87,0,0,0,.22,1.8q-.23.22,0,.33c.15.08.08.27-.22.56a5.26,5.26,0,0,0-1.91,1.13c-.23.3,0,.3.56,0a3.32,3.32,0,0,1-.9,1.57,3.37,3.37,0,0,0-.9,1.57,2.4,2.4,0,0,1-.11.79,2.62,2.62,0,0,0-.11.78.72.72,0,0,1-.67.45l-.79.79a8.78,8.78,0,0,0-.56.78c-.45,0-.68.42-.68,1.24a2.46,2.46,0,0,1-.23,1.24h0v0h0l-.21.22a.57.57,0,0,0,.14-.13,11.37,11.37,0,0,1-1.49,1.59,5.92,5.92,0,0,0-1.13,1.23c-.89,1.65-1.76,3.34-2.58,5.06s-1.68,3.33-2.58,4.83c.3.15.45.07.45-.23s.15-.37.45-.22a8.9,8.9,0,0,1-1.35,2.24c-.6.75-1.27,1.57-2,2.47a3.55,3.55,0,0,1-.9.68c-.3.3-.37.44-.22.44a.2.2,0,0,1,.22.23h-.67a1.65,1.65,0,0,1-.56.67,1.69,1.69,0,0,0-.57.68v.67c-.3-.3-.41-.34-.33-.11s0,.33-.11.33a.2.2,0,0,1-.23.23c.3.15.37.71.23,1.68s-.15,1.54,0,1.69v.22c-.15,0-.19.08-.12.23s.19.15.34,0l-.22.45v.22a.62.62,0,0,1-.45-.22.41.41,0,0,0,.11.33.5.5,0,0,1,.11.34,1.72,1.72,0,0,0,.67-.56,5.27,5.27,0,0,1,.68-.79,1.06,1.06,0,0,1-.11.45,1,1,0,0,0-.12.45l-.56.56-.78.79.22.22a.2.2,0,0,1-.22.23c-.15,0-.23.07-.23.22s-.07.23-.22.23c0-.15.15-.38.45-.68a1.86,1.86,0,0,0-1.13.68q0,.23-.33.45a.74.74,0,0,0-.34.67c0-.15-.15-.07-.45.22v.45h.22l.45-.45.45-.22v.22h-.45c.3,0,.45.08.45.23a.4.4,0,0,0-.45.45h.45v.45l.23.45-.45.22h.45c.3-.45.6-.52.9-.22l.22-.23a.45.45,0,0,1-.11.33,3.51,3.51,0,0,0,.78.57.89.89,0,0,1-.22.67,2.66,2.66,0,0,0-.45.68,18.84,18.84,0,0,0-1.8,3.7,18.6,18.6,0,0,1-1.79,3.71,12.87,12.87,0,0,1-1.35,3.59v-.22a1.26,1.26,0,0,1-.45.89,1.32,1.32,0,0,0-.45.9,5.83,5.83,0,0,1-.78.68,1.57,1.57,0,0,0-.56.67,35.41,35.41,0,0,0-3.15,5.84,40.35,40.35,0,0,1-2.48,4.88.86.86,0,0,1,.23-.17,9.8,9.8,0,0,1-2,3.26,13.83,13.83,0,0,0-2.25,3.26l-.67.67c-.31.3-.42.45-.34.45s0,.15-.11.45h-.23a1,1,0,0,1-.45.79,2.15,2.15,0,0,0-.67.78c.45,0,.52.15.22.45-.3,0-.45.11-.45.34s-.15.33-.45.33a.62.62,0,0,1-.44.23l-.45.22a3.87,3.87,0,0,1,.33,1.69,4.31,4.31,0,0,1-.11,1.91c-.3.3-.37.48-.22.56a.37.37,0,0,0,.45-.12l-.23.45-.45.45a.64.64,0,0,1-.45-.22,2.48,2.48,0,0,1-.22,1.12,4.79,4.79,0,0,1,1.23-1.23,10.14,10.14,0,0,0,1.24-1,.91.91,0,0,1-.23.67.64.64,0,0,0-.22.45,2.68,2.68,0,0,0-1.8,2v.22q0,.24-.45.45c-.15.15-.15.27,0,.34s.15.19,0,.34c-.3-.3-.22-.6.23-.9-.15-.15-.34-.07-.56.22a6.2,6.2,0,0,1-.57.68c.15,0,.12.07-.11.22s-.33.3-.33.45a.21.21,0,0,0-.23.23l-.22.22c-.3.15-.38.26-.23.34a1.06,1.06,0,0,0,.45.11h.23c0-.3.14-.45.44-.45v-.22a.35.35,0,0,0,.23.33c.15.08.07.19-.23.34V205c-.15,0-.22.23-.22.68h.22v.67l-.19.07,0,0c-.32.06-.45,0-.39-.27a3.93,3.93,0,0,0,.06-.48.26.26,0,0,1-.06.14.93.93,0,0,0-.11.56c0,.09-.06.15-.1.23h.1a.4.4,0,0,0,.45.45v-.45a7,7,0,0,1,1.12-.23,54.84,54.84,0,0,0-4.94,10.33l.23-.22a10.42,10.42,0,0,0-1.46,3.48,10.64,10.64,0,0,1-1.46,3.48,2,2,0,0,0-.23.9c-.6,1.2-1.23,2.51-1.9,3.93s-1.32,2.8-1.91,4.15L571.1,231a17.44,17.44,0,0,1-.22-6.28,36.5,36.5,0,0,1,1.57-6.74,20.75,20.75,0,0,1,.22-2.58c.15-1.13.3-2.28.45-3.48s.34-2.32.57-3.37.41-1.95.56-2.7v-1.12a4.25,4.25,0,0,0-.23,1.35c-.3-.75-.56-1.46-.78-2.14s-.49-1.38-.79-2.13l-.34.34a9.4,9.4,0,0,0-.56.78l.45-.89a1.25,1.25,0,0,1-.79-1.35,12.17,12.17,0,0,0,.12-1.57c0,.3.07.3.22,0a2,2,0,0,0,.23-.9l-.23.22v-5.61a.62.62,0,0,1,.23-.45V191c.29,0,.44-.26.44-.78s.15-.57.45-.12a2.21,2.21,0,0,1-.67-1.91,2.32,2.32,0,0,0-.22-1.68,19.25,19.25,0,0,0-.12-6.18c-.37-2.16-.71-4.3-1-6.4l-.22.45a2.62,2.62,0,0,0-.11-.78,1.71,1.71,0,0,1-.11-.56c.29-.3.41-.53.33-.68a1.45,1.45,0,0,1-.11-.67.73.73,0,0,1,.22-.9c-.15-.75-.19-1.16-.11-1.23a3.32,3.32,0,0,0,.34-1c.3-.29.33-.89.11-1.79a10,10,0,0,1-.34-1.8l.45.23a1.54,1.54,0,0,1,.23-1.8,3.41,3.41,0,0,0,.89-1.8q.22-3.13.34-6.17a52.6,52.6,0,0,1,.56-5.95c-.3,0-.37.19-.22.56s.07.56-.23.56a5.9,5.9,0,0,1,.23-3.59,9.6,9.6,0,0,0,.67-3.37,2.8,2.8,0,0,0,.56-.68,2.42,2.42,0,0,1,.34-.45c0-.29,0-.41-.11-.33s-.11,0-.11-.34l.45-.22a1,1,0,0,1,.11-1,2.06,2.06,0,0,0,.33-1q-.45,0,0-.45c.3,0,.34-.12.12-.34s-.19-.34.11-.34V138a5.14,5.14,0,0,1-.67-1.57c-.31-.9-.6-1.42-.9-1.57a.52.52,0,0,0-.34-.56c-.22-.08-.34,0-.34.11V134l.23-.45H574c-.32-.21-.44-.42-.38-.63a9,9,0,0,0-.63,1.19,3.79,3.79,0,0,1-.79,1.24,1.6,1.6,0,0,1,.23-1.35,1.06,1.06,0,0,0,.56-.78,4.09,4.09,0,0,1,.79-1.46h-.45c-.45,0-.53-.15-.23-.45.3-.15.38-.26.23-.34s-.08-.26.22-.56a1.43,1.43,0,0,0,.12.67s0,.1,0,.15a6.21,6.21,0,0,1,.28-1c-.15,0-.19-.11-.11-.33a.51.51,0,0,0-.11-.56c.15,0,.22-.15.22-.45a.21.21,0,0,1,.23-.23c.14-.15.18-.26.11-.33s-.19,0-.34.11h-.22a.66.66,0,0,0-.23.45c0,.15-.15.22-.45.22h.45l-.45.23v-.23a.64.64,0,0,1-.22-.45l.22.45a.66.66,0,0,1,.23-.45.64.64,0,0,0,.22-.45q.23-.21-.45,0c.3-.14.45-.3.45-.45q-.45-.21-.45-.45l-.22.23c-.45.6-.9.71-1.35.34s-.82-.41-1.12-.12l-.45-.22v.45h.45c.45,0,.45.22,0,.67-.6.3-.83.45-.67.45v.23a.4.4,0,0,1-.42-.24c.42-.15.64-.37.64-.66h-.45l.45-.23v-.22l-.22-.45c.14.15.22.15.22,0l-.22-.23h-.23v.23a1.13,1.13,0,0,1-.55.29l-.12-.07s0,.06,0,.08a2,2,0,0,1-1.26-.3c-.82-.45-1.23-.37-1.23.22.45-.29.67-.33.67-.11v.79a.64.64,0,0,1-.45.22,1.06,1.06,0,0,0-.45.11,1,1,0,0,1-.45.12q0,.45.12.33c.07-.07.11,0,.11.12-.15,0-.23.07-.23.22s-.07.23-.22.23c.15.15.15.22,0,.22a.2.2,0,0,0-.23.22v.23c0-.15.08-.15.23,0a4,4,0,0,1-.11.9,2.87,2.87,0,0,0-.12.67c-.15-.15-.37-.15-.67,0a1,1,0,0,1-.9,0,1,1,0,0,1,.42-.28c-.09,0-.12-.17-.08-.39.07-.45,0-.6-.34-.45-.15,0-.22.37-.22,1.12l.22-.22a2.48,2.48,0,0,1-.9,1.57c0-.3-.07-.37-.22-.23s-.23.08-.23-.22l-.22.45.22.22c.3,0,.38,0,.23.11a.37.37,0,0,0-.23.34c-.15,0-.07.38.23,1.12a6.61,6.61,0,0,0,.38.86,1.94,1.94,0,0,0-.61.49,11.86,11.86,0,0,0-.11-1.57c-.08-.6-.11-.82-.11-.67s-.19.75-.11,1.79,0,1.65-.34,1.8c0,.45.07.67.22.67s0,.15-.11,0-.19-.14-.33,0v.23h-.23c.15.3,0,.67-.34,1.12s-.48.82-.33,1.12a.64.64,0,0,1-.23-.45.64.64,0,0,0-.22-.44q.45-.45,0-.45-.23,0-.45.33c-.15.23-.08.34.23.34l-.23.45c-.15.15-.22.15-.22,0-.45.15-.61.49-.45,1a1.18,1.18,0,0,1-.23,1.23.7.7,0,0,1,.23.45,12.35,12.35,0,0,1-1.35,1.58c.45.3.75.37.9.22v.45a.89.89,0,0,0-1.24.11c-.37.38-.71.42-1,.11a.91.91,0,0,0-.45.9c.6,0,.82.15.68.45a9.29,9.29,0,0,1-1.13.67.87.87,0,0,1-.67.23c0,.3-.11.45-.34.45s-.41.15-.56.45a4,4,0,0,0,.11.9.53.53,0,0,0,.56.45c-.15.44-.52.59-1.12.44l-.67.68c.45-.9.82-1.72,1.12-2.47a15.7,15.7,0,0,1,1.12-2.25,24.42,24.42,0,0,0-3.81,4.94,3.33,3.33,0,0,0,.89,4.72,5.55,5.55,0,0,0-2.58,1.68c-1,1-1.23,1.54-.78,1.69a11.26,11.26,0,0,1,.22,2.47,1.68,1.68,0,0,0-.22.67,1.69,1.69,0,0,1-.23.67,9.14,9.14,0,0,0-1.68,3,3.81,3.81,0,0,0,.11,3,2.14,2.14,0,0,0-.67,1.57,6.72,6.72,0,0,0-1.91,1.68c-.53.68-.64,1.09-.34,1.24a4.55,4.55,0,0,0-.22,2c-.31.6-.68,1.46-1.13,2.58s-.93,2.25-1.46,3.37-1,2.25-1.46,3.37-.82,2-1.12,2.58l-.06.06c-.12.51-.21,1-.28,1.51a3.14,3.14,0,0,0,.34,1.8q-1.57,2.7-3.14,6.06t-2.7,5.39c0,.15-.11.31-.34.45a.77.77,0,0,0-.33.68l.9-1.35a15.71,15.71,0,0,1-.68,4.94.64.64,0,0,1,.45-.22c.15,0,.37-.15.68-.45l-.45.67a1.54,1.54,0,0,1,.22,1.46,2.34,2.34,0,0,0,0,1.46l-.22.22c-.31,0-.6.38-.9,1.13l.45-.23a22.67,22.67,0,0,1-1.24,2.92,23.12,23.12,0,0,0-1.23,2.92,3.78,3.78,0,0,1-.23.9l-.22,1.57a1.75,1.75,0,0,0-.23-1.12,24.62,24.62,0,0,1-.22-5.73,22.4,22.4,0,0,0-.23-5.5,42.17,42.17,0,0,1-.11-5.39,21,21,0,0,0-.33-4.94,2.72,2.72,0,0,1,.22-1,1.19,1.19,0,0,0,0-1v-.68c.15-1.79.22-3.59.22-5.39v-5.16a4.39,4.39,0,0,1,.34-2.58,6.25,6.25,0,0,0,.56-2.59h-.9a1.57,1.57,0,0,1,.57-1c.37-.37.41-.7.11-1a.2.2,0,0,0-.23-.22c.15,0,.26-.52.34-1.57a28.8,28.8,0,0,0,0-3.48c-.08-1.27-.15-2.47-.22-3.6s0-1.75.11-1.91a.64.64,0,0,1,.22-.44,37.72,37.72,0,0,1,1.35-5.17,15.71,15.71,0,0,0,.9-4.94,2,2,0,0,0-.23-.9,2,2,0,0,1-.22-.9c.15-.29.15-.52,0-.67s-.15-.45,0-.9c.9-1,1.31-1.76,1.23-2.13s-.26-.26-.56.34a3.71,3.71,0,0,1,.11-2,14.86,14.86,0,0,0,.57-1.79,1.57,1.57,0,0,0-.45-1.57,1.84,1.84,0,0,1,.67-1.13c0-.74,0-1.12.11-1.12s.26-.37.56-1.12c.3-.15.26-.71-.11-1.69s-.49-1.6-.33-1.91v.23a9.4,9.4,0,0,1,.89-1.8,5,5,0,0,0,.68-1.79c.14-.45.26-.83.33-1.13a3.79,3.79,0,0,1,.57-1.12,7.68,7.68,0,0,1,.11-1.35,2.91,2.91,0,0,0-.11-1.34,9.53,9.53,0,0,0,.22-3.37c.15-.75.3-1.46.45-2.14a4.11,4.11,0,0,0,0-1.91.57.57,0,0,0-.2.15c.22-.83.43-1.64.65-2.39.3-1,.59-2.17.9-3.37a1.82,1.82,0,0,0,.67-1.12c.3-.3.34-.45.11-.45s-.33-.15-.33-.45H539l.45-.9a2,2,0,0,0,.22-.9.19.19,0,0,1-.22-.22v-.45c.3,0,.41-.11.34-.34s0-.34.33-.34v-.44a8.36,8.36,0,0,0-.67-1.69,8.75,8.75,0,0,0-.9-1.68h.23c.14-.3.18-.49.11-.56s-.19,0-.34.11l.23-.45.44-.45a.28.28,0,0,1,.45,0,1.31,1.31,0,0,1-.22-.9,3.22,3.22,0,0,1-1,1.35c-.53.45-.94.82-1.24,1.12-.15-.15-.07-.34.23-.56s.45-.41.45-.56a3.05,3.05,0,0,0,1.34-2l-.67-.45c.3-.15.37-.26.23-.34s-.08-.18.22-.33v.89c.15,0,.26-.14.34-.45a3.23,3.23,0,0,0,.11-.67v-1.12c.15.15.37.07.67-.23v-.67a.64.64,0,0,1-.45.22,1.23,1.23,0,0,0,0-.19h0v0h0a1.7,1.7,0,0,0-.19-.66h0a2.26,2.26,0,0,0-.11-.22l-.12-.15v-.07l0,0,0,0h-.39v.22c-.16.6-.57.67-1.24.23s-1.16-.53-1.46-.23c.3,0,.3.38,0,1.12l-.9.9v.23c-.15.15-.22.26-.22.33s-.08.19-.23.34a3.45,3.45,0,0,0-.45,1.35c-.3-.15-.41-.34-.33-.56a1.3,1.3,0,0,1,.33-.56,11.73,11.73,0,0,1,1.58-2.48.83.83,0,0,0-.57-.22c-.22,0-.26-.15-.11-.45.3,0,.37,0,.23-.11s-.08-.26.22-.56a.91.91,0,0,1,.23.67l-.23.23h.23V101l.22-.45v-.9c-.15,0-.15-.14,0-.45a.94.94,0,0,0,0-.89c.3.3.45.22.45-.23v-.22c0-.3-.08-.45-.23-.45a.19.19,0,0,0-.22.22,1.36,1.36,0,0,1-.22.9v.22c-.11,0-.18-.07-.21-.22h.21l-.23-.22c.15,0,.23-.3.23-.9-.16,0-.23,0-.23.11s-.08.11-.22.11v-.45c-.31-.14-.31-.3,0-.45.14-.29.14-.45,0-.45l-.45.45c-.3.45-.6.53-.9.23a1.55,1.55,0,0,1,.11-.68c.07-.14,0-.37-.34-.67a30.93,30.93,0,0,1-.56-4.27,9.55,9.55,0,0,0-1-3.81l-.22.22a8.79,8.79,0,0,0-.79-1.35c-.22-.29-.19-.82.11-1.57a6.74,6.74,0,0,1-.89-1.12,2.21,2.21,0,0,0-1.35-.9,4.48,4.48,0,0,1-1.35-2.25c-.3.16-.45.08-.45-.22s-.15-.3-.45,0c-.45.45-.6.71-.45.79s.08.26-.22.56l.22-.23c-.3.3-.41.56-.33.79a2.64,2.64,0,0,1,.11.79,2.66,2.66,0,0,0-.45-.68.9.9,0,0,1-.22-.67c-.45,0-.64-.19-.57-.56s0-.41-.33-.12c-.75.31-1.09.53-1,.68a1.47,1.47,0,0,1-.12.9c-.3,1.65-.63,3.22-1,4.71s-.71,3-1,4.49c-.89-.14-1.34,0-1.34.45.29-.45.45-.22.45.68a1,1,0,0,1-.12.45,2.4,2.4,0,0,0-.11.89v.23h.23v.67a1.58,1.58,0,0,1-.23-.67,2,2,0,0,0-.22-.68v.45c-.45-1.19-.83-2.32-1.13-3.37a13,13,0,0,1-.45-3.59,7.35,7.35,0,0,1-1.34-2.81,2.91,2.91,0,0,0-1.58-2.13,7.43,7.43,0,0,0-.33-2.47c-.23-.6-.56-1.49-1-2.69,0,.45-.08.26-.23-.57s-.37-.93-.67-.33c-.3,1-.38,1.68-.23,1.91s.08.56-.22,1q-.45,4.49-.45,8.87c0,2.92.07,5.87.23,8.87a55.91,55.91,0,0,1,.11,6,30.91,30.91,0,0,0,.33,5.95c.3,2.1.6,4.15.9,6.18s.53,3.93.68,5.72a5.83,5.83,0,0,1-.23,1.8,1,1,0,0,0-1.12-1.12,3,3,0,0,0-.11-2.47,6.35,6.35,0,0,1-.79-2.47c-.3.3-.45.07-.45-.68s-.15-.9-.45-.45c-.3.75-.37,1.24-.22,1.46s.07.64-.23,1.24v-.23q-.88,4.28-1.46,8.42c-.37,2.78-.71,5.58-1,8.43a30,30,0,0,1,.34,5.83,51.7,51.7,0,0,0,.11,5.84,42.46,42.46,0,0,0,0,6.18q.22,3.25.68,5.95a1.53,1.53,0,0,1-.34.9,1.47,1.47,0,0,0-.34.9,47.76,47.76,0,0,1,.11,5.72,50.15,50.15,0,0,0,.12,5.73v-.23a6.2,6.2,0,0,1,.22,2.81,14.49,14.49,0,0,0-.22,2.58c0,.15.07.23.22.23-.15.15-.15.82,0,2s.34,2.47.56,3.82.42,2.66.56,3.93.15,2,0,2.13v.67a33.35,33.35,0,0,1-.56,6.18,15.31,15.31,0,0,0-.11,5.5,1.69,1.69,0,0,1,.34,1.24,1.08,1.08,0,0,0,.33,1c-.14.3-.14.49,0,.56s.15.26,0,.56a4,4,0,0,0-.67,2.47c.15.45.38.38.67-.22v4.71a2,2,0,0,1,.23.9,2.13,2.13,0,0,0,.22.9c.3.45.3.82,0,1.12-.14.75-.22,1.16-.22,1.24s-.08.48-.23,1.23c-.14.3,0,.94.45,1.91a9.11,9.11,0,0,1,.68,1.68h-.23a9,9,0,0,1-.78,2.25,2.2,2.2,0,0,0,.11,2.25,53.31,53.31,0,0,0-.45,7.07v6.85c.3-.15.41-.34.34-.56s.19-.41.78-.56a21.64,21.64,0,0,1-.33,3.7c-.23,1.27-.49,2.51-.79,3.71v1.34c-.15.31-.15.45,0,.45s.22.15.22.45l-.44.23c.3.45.3.82,0,1.12a2.81,2.81,0,0,0-.68,1.12.4.4,0,0,1,.45.45c-.3.15-.34.34-.11.56s.19.34-.11.34H510a1.31,1.31,0,0,1-.22.9,11.69,11.69,0,0,1,1,1.68,4.37,4.37,0,0,0,1.23,1.69v.22c-.3.3-.3.49,0,.56s.45,0,.45-.33v.67l-.45.45v.22h-.45a.91.91,0,0,1,.45.9,1.35,1.35,0,0,1,.23-.78l.23-.4s0,.06.1.06c.23,0,.19.15-.11.45V258a.68.68,0,0,1,.45-.22,1.84,1.84,0,0,1-.22,1.12.62.62,0,0,0,.44.23c.15,0,.08.15-.22.44s-.15.45,0,.45.07.23-.22.68a4.92,4.92,0,0,1,.22-1.57,5.27,5.27,0,0,0-.79,1,2,2,0,0,0-.33.78c.3,0,.37.15.22.45a.43.43,0,0,0,.23.67.4.4,0,0,0-.45.45v.45c0,.3.14.38.45.23l.45-.23v-1.12l.44.45-.22-.23a.73.73,0,0,0,.22.9h.23c-.15.15-.15.23,0,.23v.45l-.67-.68c0,.15.14.38.44.68l.45.45.23-.23h.22l-.22-.22a.4.4,0,0,1,.45-.45,2.76,2.76,0,0,1,1,.22,2.75,2.75,0,0,0,1,.23.39.39,0,0,0,.32-.16,1.59,1.59,0,0,0,0,.38,2.92,2.92,0,0,1-.57,1.8h.23a8,8,0,0,0-.11,2.36,2.11,2.11,0,0,0,.78,1.68,5.13,5.13,0,0,0-.67,2v.49c-.41,0-.78-.26-1.09-.93l.08,1.11c-.36,1.11-.43-.6-.7-.83,0,.85.39,1,.17,1.58-3,1.51-6.23-1.15-9.32-1.71-1.13-.15-.64,5.21-2.07,2.94l.4-1.86c-2.28,2.35-4.66.33-6.9,2.26.13-.4.14-.91.36-.92-.48-1.2-1.75.08-1.76,1.06-.35-.09-.08-.89-.29-1.37-.48-.66-1.19,1.62-1.44.46-.05-.19.13-.4.22-.5-.31.6-1.44,0-1.15,1.31-.83-.58-1.6.7-2.27,0-.44,1.5-1.44-.59-1.57,1.47.06-2.13-1.47-1.58-2-.58.18-.64-.46-.61-.25-1.49a1.23,1.23,0,0,0-1.05,1.53c-1.12-2.3-2.24,2.05-2.87-.92a19.6,19.6,0,0,1-5.08,2.46c.06-1.8,1.79-.28,1.72-2.2-1.54.89-2.42,2.45-3.94,2.11-.4-.22.22-.77.35-1.08-1.53.81-3,.06-4.33,1a.9.9,0,0,1,.29-.46c-.26.07-.62-.2-.59.54l.26-.22c.43,1.07-1.07,2.28-1.11,2.83.45-2.1-1.35-.48-.63-3.11a1.14,1.14,0,0,0-.35,1c-.27-.13-.35-.4-.08-1-1,.45-.63,1.18-1.5,1.21,0-.34.18-.48.27-.88-.44.69-.88,1.35-1.62,1.1,0-.2,0-.45.18-.46-1.27.18-2.16,1.76-3.55,1.21.41-1.36-.47-.43-.55-1.57l-.74.39.3.53c-.66,0-1.24.85-1.8.51l.49-.48-1.23.26.7.39c-.67.58.07,1.38-.8,1.09.17-.11-.66,0-1-.62h0c-.32.35-.65.7-1.14.45-.12-.32.1-1.14,0-1.36-.32.87-1.53.3-1.93,1.2a1.43,1.43,0,0,0,.09-.84l-.26.68c-.31-.2-.35-.3-.3-.71-.91-.09.29,1.22-.8.72.09-.05.05-.15.23-.25-1.09-.24-2.1.46-3.1.18-.3-.89.87-.26.53-1-1.44.25-3,1.18-4.37,1l.26.09c-.2,1.15-1-.54-1.74,0,.17-.09.22-.62.18-.5-1-.13-2,.36-3.4.71l.18-.26a11,11,0,0,0-2.09-.16c-.18.24-.53.22-.32.56a2.94,2.94,0,0,0-2.69-.2,3.38,3.38,0,0,1-2.54,0c.2,0,.47-.2.31-.19l-1.41.23c.11.32.18.19.48.44a1.42,1.42,0,0,1-.93.34c.64-.21,0-.51-.28-.67.05.1-.05.2,0,.3-.74-.52-.13.61-1.14.26l.06-.16a3.43,3.43,0,0,1-1.14.25c-.17-.32.41-.16.43-.43-.57.05-1.13.62-1.65.31.25-.08.6-.09.84-.18a1.6,1.6,0,0,0-1.05-.3h0l-1-.11.25.08c-.72.75-1.46.18-2.42.63.94-.41.15-.24.22-.52-.24-.07-.62-.14-.51-.22-.46.24-.76-.12-1.4.21,0-.08-.49,0-.39-.18-.59.09.14.12.09.23-.91.27-2.15-.19-3.46.17-1.13.16-1.34.33-2.4.4-.35-.07.3-.16.3-.16a7.27,7.27,0,0,0-1.55,0c.11,0,0-.06-.17-.09-.43,0-.29.13-.86.09.1,0,.23-.09.44-.14-.51.06-1,.13-1.55.16-.14,0,.32-.07.51-.11-.59,0-1.54.1-1.72.15h.38c-.22,0-.11,0,0-.06a1.41,1.41,0,0,1,.76,0l-.38,0a11.3,11.3,0,0,0,2.27-.06l-.31.15.77-.13c.17,0,.28.13-.09.15.54.09.48-.05.94.05.06,0,0,0,0,0l.53-.05c-.1,0,.09.14-.23.1.95.15,1.53-.13,1.89.05h-.08c1.32-.05.13-.16,1.12-.39l.67.5.13-.2c.13,0,.4,0,.35.11.51-.14-.08-.09.21-.23.66.21,1.81-.1,2,.3.23-.19-.63-.15.07-.28.2.44.81-.08,1.41.14-.18.25-.75.1-.15.33.36-.41,1.16.13,1.67.07,0-.36,1.1-.12,1.95-.24a17.3,17.3,0,0,0,2.38.47l0,.08c.15-.46,1-.36,1.56-.45,0,.3-.13.42-.45.53l.56,0a.91.91,0,0,1,.66-.29l-.14.38c.74,0,1.5-.41,2.45-.1.05-.4-.76-1.1.25-1.37,0,.21.07.59-.19.67.09,0,.31-.17.48-.08l-.4.36c.43.17.23-.3.58-.26,0,.31.25.23.2.48-.09,0-.3-.14-.43,0a1.64,1.64,0,0,1,1,.52.35.35,0,0,1,.29-.47c.74,0,.25.41.68.6.18-.23.65,0,.67-.47.21,0,.25.25.34.4.38-.22,1.79,0,1.36-.59l-.1,0,.06,0c1.26-.53,2.62.38,3.86.17v.21c.75-.22,1.66-.09,2.19-.55a.6.6,0,0,1,.43.67c.57-.14.63-.4,1.45,0-.57.38.2.36-.58.27.74.22.9.61,1.7,0-.27.59.56.79.91.63l-.52-.47a2.81,2.81,0,0,1,1.09.07l-.19.81c1.52,1.14,2.73-1.64,3.89.2.4-.6-.83-.48-.47-1.19.7.14,1.43,1.48,1.64,1.51,1,.58.89-1.31,1.89-.91-.13-.35-.25-1.26.5-1.57.7.13.86,1.48.42,1.74a.19.19,0,0,1-.24-.21c-.23.12-.52.25-.25.64l.09-.34c.35.37,1.31.39,1.08,1,.53-.3.23-.57-.16-.77.89.56,1.39.09,2.31.5-.14-.22-.28-.65-.13-.64,1.35.52.59-.68,1.51-.81.52.59-.19,1.37.73.92.56.43.12,1-.1,1.32.84-.68,1.57.61,2,.8l-.44.28a.92.92,0,0,1,.7-.12l-.25-.82c.26.16.48.18.48.51.26-.51-.21-1.34.32-2,.35.43,1.05-.4,1.17.7-1.08-.43.12,1.1-.8,1.21a.57.57,0,0,1,.66.07.27.27,0,0,1-.11.28l0,0c-.15.09-.07.08,0,0,1,1.06.48-1.2,1.56-1.11-.14.62.25,1.21.42,1.09-.43-.05-.2-1.06.19-1.53.7.54.76-.33,1.12-.26l-.41-.25c.14-.64.48-.54,1-.73a.37.37,0,0,1-.09.33c.5-.44,1.11,1.4,1.78.74.35.47,0,1.26.34,1.59.84-.82.91,1,1.79.34-.26-.95-.3-.72.32-1.6l-1.45.57.93-1.29c-.44,0-.92.54-1.18.37.44-.73.4-.51.19-1.27.59,1.4,1.18-.78,1.87.18l0,2.33c1,1.13,1.84-1.1,3.19-.43l-.43-.45c.18-1,.83-.1,1.27-.47a3.39,3.39,0,0,0,.41,1.67c0-.62,1,.12,1.11-1.56l.6,1.14c1.09.54,1.25-2.39,2.29-2.07-.31.94.16,1.59-.54,2.23.35,0,.66.21.67-.4.2.57,1-1.15,1.29-.29.15-.39.19-1.32.59-1.24a1.39,1.39,0,0,1,0,.45c0-.45.62-.59.28-1.6,1.07,2.88,3-.16,3.94,2.39a9.75,9.75,0,0,1,2.37-.61c0,.3,0,.49-.13.39.95,1,.58-2.81,1.67-1.77.55,1.64-.58.86-.23,1.48.15,3.3,1.31-.4,2,1.58l-.18.19c.56,1.18,1.37-1.21,2.28-.93a1.85,1.85,0,0,0,0,.52,4.9,4.9,0,0,1,2.69-2.78c-.28,1.38-.4.72-.24,2.14.4-.19-.11-2.26.68-2.65a8.12,8.12,0,0,1,.89,3l-.74.05c.38,2,1,0,1.35.34l-.05.87c1.14-.21,1.15-2.43,2.37-2.24l-.12-.67c.66-2.22.56,1.27,1.22-.38l.2,2.29a13,13,0,0,1,2.33-2.6,11.47,11.47,0,0,1-1.94,3.55,1.53,1.53,0,0,0,1.71-1.23c-.17.22-.4.78-.57.41.54-1.8,1.24-2.7,2.11-2.64-.16,4.6,2.26,1.23,2.9,4.92,1.53-1.67,3.05.95,4.84.81-.64-3.89.52-.08.41-4.05.41-.24.57-.17.61.07l-.08-.16.09.19h0l1.26,2.45c.3,1.2-.4.87-.36,1.77.91.38.38,1.75,1,2.88-.13-1.46.32-2.06.84-1.46l-.74-1.94c1.28-2.1,1.11,3.53,2.39,1.46l-.4,1.27c.66-.72,2.43.26,3.08-3.11.12.49.27,1.67,0,2,1.58.67,3.51-3.47,4.74-1.23l-.12,1.07c.3-.29.51-2,.88-.89,0,.45-.12,1.08,0,1.16.16-.36.78-1.87,1.17-1.2l-.33,1.21c1.54,1.57,2.36-2.86,3.65-3.6,0,3.32,1.21,4.5,1.82,5.1l0,.47c1.79.59,3-2.57,4.7-3.86,1,3.87,3.49,1.82,5.15,4.14a6,6,0,0,1,.33-3.18c.39.77,1.08-2.48,1,.88l-.14-.07c.29,3.32,1.09,2.51,1.71,2.65l.11-4.45c.81,3.29,1.88,2.79,2.86,2.15s1.86-1.38,2.3,1.67c.39-1.13.88-1.08,1.27-2.23l0,2.5c1.09.72,1.64,1.09,3,.59l-.27,1.8c.76.24,1-7.29,1.66-7.42l.21,3.86c1.33,0,2.67,3.56,4,.08,0,.58-.06,1.72-.27,1.86.62.14,2.41,2.9,2.19-2.61,0,3.57,1.37.45,2.08-1.12l-.11,2.67c.61-3.38.62-4.32,1.47-5.24.18.32.18,1.79,0,1.61.57,1,.47-2.62,1.25-1.21l-.3,1.72c.68.24.63-.69,1-2.7.43-1.09,1.3.72,1.4,3.22.09-1.51.47-3.53.87-2.8a5.1,5.1,0,0,1-.17,1.81c1.15,1.95,1.71-3.16,2.5-.39a9.62,9.62,0,0,0,.13,1.67c-.91-.11-1.64-.3-1.57-.5,0,2.56.73,3.07.15,6.56.59-1.87,1.6-6,2.32-4.79,0,.26.06.51.09.91l-.07.28c.16.27.31,0,.45-.39.23.45.37.77.59.83.09,2.17.85,1.23,1.22,1.36,0-2.88.45-2.39,0-4.8,0,.21-.07.34-.32.45,0-.06.06-.18.1-.2,0-.26-.09-.48-.14-.66q0,.46-.09.9l.13,0a.6.6,0,0,0-.15.29l0-.25a4.78,4.78,0,0,1-.91.15c.29-1.44.59-2.66,1-1.05.2-1.79.4-3.67.51-4.63.5,4,1.47,6.27,1.61,8.79,1.12-1.57,2.64-.9,3.34-6.44.32-.71.37,1.61.49,2.49-.19.55-.41.46-.51,1.25.64-1.4,1.89-.46,2-4.39.81,1.8-.45,3.61.66,3l-.15,1.2c1.08,3.22,2,.76,2.88-1.54s1.79-4.27,2.93-.6a4.23,4.23,0,0,1-.16-1.05c1.37,1.89,2.79,1.09,4.2.52s2.81-.87,4.16,2.24c.77,1.27.86-1.45,1.33-3.53l.16,3.52.81-4c1.14-3,2,8.79,3.41,3.15l-.18-2.42c.51.47,1.64-1.4,1.55,1.4.05-.44.17-2.53.37-1.25l0,1.9,1.27-3.23c1,1.41-.16,7.57,1.28,8,.53-.68,1.48-5.33,1.33-6.74,1,2.84,1.9,4.84,2,2.36.05-1.33.1-2.57.15-3.68l0-.05a9.26,9.26,0,0,0,1.22,1.54c.19-.06,1-.51,2.3-2.94.31-.59.83-1.52,1.45-2.6,1.92-3.37,4.74-8.12,4.74-8.12l-5.24,5.77s1.6-3.34,3-6c-1.38,2.18-3,4.68-3,4.68l.32-8.58-1,4.11-2.24-6.45-2.17,3.64v-1l-1.66.86a17.28,17.28,0,0,0-.63-3.23l-.84,3.51-.26-2.72.7-.22c-.4-2.55-.65-.25-.94,1.33a13.11,13.11,0,0,0-.35-3l-.82,5.41c-.1-2.18.37-4.38-.18-5.54-.39,2.5.37,4.88-.27,6.55-.4-2.52-.28-4.59-.75-2.4a9.16,9.16,0,0,1,.22-3c-.42,1.75-1.11.8-1.33,3.76-.41-3.08-1.41.88-1.37-4.33-.13,1.26-.73,4.13-1.12,4.36.7-6.24-1.44-.27-1.25-6.89-.52,5.57-1.88,2.6-2.8,5.7a4.82,4.82,0,0,1,.2-1.09c-.49-.47-.64-2-1-3-.06,4.5-.87,5.57-1.3,8.34-.64-4.26.38-5.25.18-9.38,0,3.62-1.1,3.69-.88,6.67a21.3,21.3,0,0,1-.67-4.91c-.09,5.53-.45,1-.86,4.38-.7-2.67-.18-5.14-1-3.41a7.9,7.9,0,0,1,.32-3.65c-.79,0-.37,4.07-.54,6.46-.93,1.22-.43-3-.75-5.08-.59,1.14-1,4.92-1.47,4.79a7.8,7.8,0,0,1,0-1.76c-.62,3.28-1.84.3-2.56,4.36a9.32,9.32,0,0,1-.09-1c.11,2,.13,4,.11,5.51-.36.08-.66,2.55-.79-.07.22.08.23-1,.34-1.8l-.37,1.15c-.34-3.75.5-1.32.5-4.11-.72,1.26-1.56,4.39-2.11,3.35-.12-3.64,1.29-1.29.55-4.5l.86,1.35c-.65-5.76.52.37-.08-5.79-1.13-1-1.26,2-2.38,1-.25,2,.08,3-.17,5-1.59,3.67-1.25-9-2.42-4.1-.31,2.4-.42,6.91-1.26,4.57l.29-4c-1.09-.31-.62,5.79-1.76,3.17.2-1.58.85-1.37.69-1.84-.74-3.1-.52,2.3-1.09,2.32l-.12-3.5c-1.16.64-2.43,3.23-3.71,3.91a9,9,0,0,0,0-3.14c-1.62,1.82-3.46-.2-5-2l-.59,2.92a3.44,3.44,0,0,1-.11-1.84c-.61-1,0,1.81-.32,3-.35.22-.46-1.61-.24-2.49-.78,1.82-2,3.79-3.09,3.64l.19-.11c.45-.6.63-1,.56-1.13s.26-.6,1-1.34l-.22.22a76,76,0,0,0,4.26-7c1.2-2.25,2.47-4.49,3.82-6.74a.57.57,0,0,0,.89.19c-.14.07-.21,0-.21-.19a2,2,0,0,1,.22-.9c.15,0,.37-.22.67-.67.15-.15.15-.22,0-.22.45-.45.68-.6.68-.45,0-.3.07-.45.22-.45s.22-.08.22-.23q-.22-.45-.33-.33c-.08.07-.11,0-.11-.12l.67-1.34a1.3,1.3,0,0,0,.9.11.65.65,0,0,1,.67.11c-.3.3-.48.38-.56.22s-.34-.07-.79.23c.6-.15.79-.07.57.22s-.12.53.33.68a1.54,1.54,0,0,0,.45-1.13,5.1,5.1,0,0,0,.56-.67,2.27,2.27,0,0,1,.79-.67.19.19,0,0,1,.22.22l.23-.45c0-.14-.08-.14-.23,0,0-.14.15-.37.45-.67.06,0,.09-.11.1-.28,0,.07.08.11.13,0a9.17,9.17,0,0,0,.67-2.47c.3-1.49.6-2.32.9-2.47a.39.39,0,0,0-.45-.44q.22-.45.45-.12a.74.74,0,0,0,.67.34v-.22a11,11,0,0,1,.56-1.35,1.75,1.75,0,0,0,.19-1,.36.36,0,0,0,.15.17c.15.08.23.26.23.56h-.23l.23.45c.45-.15.52-.52.22-1.12a.62.62,0,0,0,.45-.23c.3,0,.52-.29.67-.89a3.35,3.35,0,0,1,.9-1.58l-.22-.44c.45-.3.86-.57,1.23-.79a3.34,3.34,0,0,0,1-1c-.15-.45-.37-.52-.67-.23l.22-.45c.3.31.6.27.9-.11s.6-.41.9-.11l.22-.22a.45.45,0,0,1,.12-.34.48.48,0,0,0,.11-.34c-.45,0-.53-.14-.23-.45l.9-.89c.15,0,.23,0,.23.11s.07.11.22.11c0-.45.11-.64.34-.56s.48-.19.79-.79c.14-.3.29-.59.44-.9s.08-.45-.22-.45c.15-.44.3-.67.45-.67h.66c-.39.74-.79,1.45-1.22,2.13-.53.83-1,1.61-1.46,2.36a29.39,29.39,0,0,0,4.94-5.28,4.46,4.46,0,0,0,.22-5.5,4.08,4.08,0,0,0,3-1.68c1-1.12,1.31-1.76,1-1.91a7.85,7.85,0,0,1,.23-2.25,60.08,60.08,0,0,1,3.59-7.63q2-3.59,4.49-7.64c.45-.74,1.09-1.75,1.91-3s1.65-2.58,2.47-3.93,1.65-2.65,2.47-3.93a19.07,19.07,0,0,1,2.36-3,1.75,1.75,0,0,0,.23-1.12,5.84,5.84,0,0,1-.68,1.34c.3-1.19.6-2.24.9-3.14a20.65,20.65,0,0,0,.67-2.47h-.56c-.08,0-.26.23-.56.67l.23-.89c-.16-.45,0-1,.56-1.8a3.66,3.66,0,0,0,.78-2c.15.3.3.37.45.22l.68-.67h-.45a29.76,29.76,0,0,0,1.91-3.59c.52-1.2,1-2.25,1.46-3.15.29-.3.52-.45.67-.45l.67-1.79c.15.15.41,0,.79-.45s.56-.45.56,0c.3-.75.6-1.54.9-2.36a3.21,3.21,0,0,0,0-2.36,47.89,47.89,0,0,0,4.15-7.3c1.13-2.47,2.28-5,3.48-7.52h-.22a4.83,4.83,0,0,0,.9-2.69,5.12,5.12,0,0,1,1.12-2.92,17.74,17.74,0,0,1,.67-2.7,2.87,2.87,0,0,0,0-2.24,8.64,8.64,0,0,0,.57-2,5.27,5.27,0,0,1,.78-2c-.3.15-.37-.11-.22-.78s.07-.79-.23-.34c-.75.3-1.08.56-1,.79s-.26.48-1,.78h.23c-.9,1.2-1.69,2.29-2.36,3.26a19.29,19.29,0,0,1-2.14,2.58q2-3.81,4-8t4.26-8.42h-.22a12.45,12.45,0,0,0,.9-3.15A8.8,8.8,0,0,1,647.9,119a11.43,11.43,0,0,1,1-3.26c.52-1.12.63-1.91.33-2.36a9.88,9.88,0,0,0,1.35-2.81,10.42,10.42,0,0,1,.9-2.35c-.3,0-.34-.38-.12-1.13s.19-1-.11-.67c-.89,1.2-1.34,1.72-1.34,1.57s-.23-.07-.23-.22l.23-.23a45.7,45.7,0,0,0,2.35-3.93,41.41,41.41,0,0,1,2.59-4.15l.44-.45c.3-.45.38-.67.23-.67s-.15-.15,0-.45H656a1.36,1.36,0,0,1,.79-.9,4,4,0,0,0,1.23-.9c-.15,0-.08-.37.22-1.12.3.3.41.22.34-.23s0-.59.34-.45a.39.39,0,0,1,.45-.45V91.11a13.69,13.69,0,0,1,.45-2h.45a.86.86,0,0,0,.11-.68c-.08-.14-.11-.07-.11.23V88l.22-.45q0-.45.45,0a.67.67,0,0,1-.11-.68,1.36,1.36,0,0,1,.33-.67,3,3,0,0,0-.67,1,3,3,0,0,1-.67,1h-.45l-.23-.22a.66.66,0,0,0,.23-.45,3.12,3.12,0,0,0,1-1.13,7.81,7.81,0,0,1,1-1.34.5.5,0,0,0-.11-.34c-.08-.07.18-.19.78-.34.3-.3.41-.48.34-.56s0-.26.34-.56c.14.45-.31,1-1.35,1.57a2.17,2.17,0,0,0,1.12-.45,10.83,10.83,0,0,1,1.12-.67,1.83,1.83,0,0,1,.45-1.35c.3,0,.45-.07.45-.22a.66.66,0,0,0,.23-.45q.43-.45,0-.45h-.23c-.45.45-.75.67-.9.67a1,1,0,0,0,.68-1.12h-.23a.66.66,0,0,0,.23-.45v-.45l.22-.22h-.22c0-.15,0-.23-.11-.23s-.12.08-.12.23c0,.3-.22.45-.67.45a2.84,2.84,0,0,1,.67-1.13,1,1,0,0,0,.23-1.12,44.6,44.6,0,0,0,3.37-8.53h-.45a4.94,4.94,0,0,0,.67-1.69,8.32,8.32,0,0,1,.67-1.91,1.66,1.66,0,0,1-.11-1.57A1.2,1.2,0,0,0,668.34,62.81Zm-95.89,65.13a.2.2,0,0,1,.22.22h-.45A.2.2,0,0,1,572.45,127.94Zm-36.17-5.31a.25.25,0,0,0,.13.14c.22.15.11.38-.34.68ZM535,103.24l.22-.23c0,.15,0,.23-.11.23s-.11.07-.11.22Zm-22.4,153.91.17-.31h.22A1.91,1.91,0,0,0,512.55,257.15Zm.61-1.43v-.23a.21.21,0,0,1,.23.23Zm.9,7.18h.23C514.29,263.05,514.21,263.05,514.06,262.9Zm2.56.13c-.5.45-.76.34-.76-.35h.22a.66.66,0,0,1,.45-.23l.23-.22A5,5,0,0,0,516.62,263Zm39.89-91.3v-.23l.22-.22-.22.67ZM558.08,188c-.15.53-.3,1.16-.45,1.91-.15.9-.3,2-.45,3.37s-.34,2.8-.56,4.38-.45,3-.68,4.38a11.73,11.73,0,0,1-1,3.36v1.35a3.61,3.61,0,0,1,.45-1.57,3.52,3.52,0,0,0,.34,1.57,3.56,3.56,0,0,1,.34,1.57,3.25,3.25,0,0,0-.56,1.35c-.08.45,0,.67.11.67a6.29,6.29,0,0,1,.67.79,1.68,1.68,0,0,0,.68.56,13.33,13.33,0,0,1,.33,6.18,59.94,59.94,0,0,1-1.46,6.4c-.15.6-.3,1.42-.45,2.47s-.3,2.13-.45,3.25-.3,2.21-.45,3.26a18.38,18.38,0,0,0-.22,2.47,1.9,1.9,0,0,0-.34.45,1.84,1.84,0,0,1-.33.45l.89-.9a3.58,3.58,0,0,0,.12,2,5.2,5.2,0,0,1,.33,1.8,4.85,4.85,0,0,0,1.13-.68l-.23.68a2.22,2.22,0,0,1,.56,1.35,11.08,11.08,0,0,1,.12,1.34c-.31-.14-.45.08-.45.68h.22a5.21,5.21,0,0,0-.22,2.69,5.34,5.34,0,0,1-.23,2.7c0,.15,0,.22-.11.22s-.11.08-.11.23l.67,2c-.3-.3-.53-.26-.67.11s-.15.41,0,.11a3.85,3.85,0,0,1,0,1.8,2,2,0,0,0,.22,1.57,52.3,52.3,0,0,0-.11,5.95,57.12,57.12,0,0,0,.56,5.95l.23-.45c.14.75.33,1.57.56,2.47a4,4,0,0,1-.11,2.47c.09.19.16.39.25.58a3.31,3.31,0,0,1-.43,1.28v-2.69l-.69,2.86-.36-3.17-.48.72c-.07,0-.14,0-.19.3l.19-.3a3.77,3.77,0,0,1,.37,1.94c-.74,1.24-1.81-1.75-1.83-3.09L552,271.54a4.14,4.14,0,0,1,.39-1.67c-.66,1.54-.06-3-.86-.68a10.21,10.21,0,0,1-.08,2.08c-.43-1.54-1.4-1.47-2.13-.77l.14-1.77c-1.3-.33-2.75,1.07-4.21,1.15.52.75.4,3.74,0,4l-.17-2.61c-.27,1.63.45,1-.12,3-.54-.27-.37-2.94-.05-3.81l-.67.95c0-.78.12-1.2.16-2.19-.27,1.63-1.15-2.5-1.54.32l0-.76c-1.46.11-2.12,1-3.32,1.26,0,2.17-.48,1.72-.84,3.48-.88-.64-1.85-2.24-2.9-2-.74,1.09-.22,1.79-.55,3.05-.06-1.9-1.11-1.65-.56-3.05-1.27.39-1.62.5-3.22,2.1a4,4,0,0,1,.26,1.7c-.29.32-.66-.74-.62-1.63l.08-.19c-.9,1.43-1.94.13-2.93-1s-1.87-2-2.57-.35l-1.49,2c-.68-.26.41-1.33-.09-2.37-1.6,3-2.53-.22-3.85,1.75a3.38,3.38,0,0,0-.83-1.86c.66-1.14,1.28-2.28,1.86-3.43a51.29,51.29,0,0,1,2.69-4.71l.23.22c.3-.15.48,0,.56.45s.26.52.56.23c.3-.6.41-1,.34-1.13s0-.37.33-.67h-.22l.45-2.7a17.69,17.69,0,0,0,.22-2.92,6,6,0,0,1,1-1.46,3,3,0,0,0,.79-1.45,33.52,33.52,0,0,0,1.57-4.38c.45-1.58.82-3.11,1.13-4.61-.16-.3.14-.75.89-1.34a20.16,20.16,0,0,0,1.8-3.6,29.23,29.23,0,0,1,1.8-3.82l-.45.23a9.37,9.37,0,0,1,.9-1.8,5.16,5.16,0,0,0,.67-1.79c0-.15.07-.23.22-.23s.23-.07.23-.22c.15,0,.34-.41.56-1.24s.45-1.76.67-2.81.45-2,.68-2.92a4.58,4.58,0,0,1,.56-1.57v-.22a28.34,28.34,0,0,1,2.81-3.71,15.46,15.46,0,0,0,2.58-3.93,5.29,5.29,0,0,1-.34-.78,6.7,6.7,0,0,0-.34-.79c.3-.15.41-.26.34-.34s0-.25.11-.56c.75-.3,1.16-.63,1.24-1s-.11-.48-.56-.33a2.51,2.51,0,0,1,.56-1.46,11,11,0,0,0,.78-1.24,5,5,0,0,1,.23-1.57c0-.45.15-.67.45-.67a6.85,6.85,0,0,1,.56-1,7.79,7.79,0,0,0,.56-.78c.45,0,.52-.6.23-1.8a3.91,3.91,0,0,1,1.12-1.79v-.23a2.27,2.27,0,0,1,.67-.79,7.82,7.82,0,0,0,.9-.78q1.13-2.48,2.13-4.83a26.1,26.1,0,0,1,2.59-4.6c-.31,0-.49.11-.56.33s-.34.34-.79.34a6.66,6.66,0,0,1,1.68-2.58,7.36,7.36,0,0,0,1.69-2.36.19.19,0,0,1,.22-.22A6.44,6.44,0,0,1,558.08,188Zm1.8-21.22a1.49,1.49,0,0,1-.45-1.12l.45.89ZM581.4,291.71c0-.1,0-.24,0-.35,0,.55,0,1.06-.1,1.43-.24.39-.32-.18-.36-.77A1.17,1.17,0,0,0,581.4,291.71Zm33.64-6a2.46,2.46,0,0,1-.37-1.12C614.79,285,614.92,285.33,615,285.7Zm-35.43-12.81.38-.18a3.1,3.1,0,0,0-.38.23Zm-.87.25c0,1,0,2-.16,1.93a5.5,5.5,0,0,0-.51-2A1.14,1.14,0,0,0,578.74,273.14ZM570,130h.23c0,.15-.08.22-.23.22Zm.11,138.89a8.26,8.26,0,0,1-.56,1.91c.3-.15.37.12.23.79a1.81,1.81,0,0,0,0,.19,2.6,2.6,0,0,1-.59-1l.22-.84c-.88-1.06-1,5.73-1.81,3.19l.16-.49-.26-.12c.23-.4.44-.81.62-1.2q1-2.13,2.14-4.6A14.74,14.74,0,0,1,570.09,268.85Zm.34-32.22a.68.68,0,0,1-.22.45l-.45-.23-.23-.22h.23v.22a.4.4,0,0,0,.45-.45l.44-.22c.15-.15.23-.15.23,0Q570.43,236.41,570.43,236.63Zm16,11.26v0q-.23-1.58,0-1.35l.23-.23A4.3,4.3,0,0,0,586.38,247.89ZM606.58,158l-.22.22a.58.58,0,0,0,.22-.33c0-.08.08-.19.23-.34h.45C606.81,157.58,606.58,157.73,606.58,158Zm56.15-77.92c.45,0,.67.07.67.22Z" transform="translate(-33.79 -57.71)"/></svg>